# xmcd
#
# Track frame offsets:
#	150
#	10615
#	27055
#	40176
#	51928
#	70895
#	83264
#	94117
#	108373
#	119935
#	132510
#	148811
#	161566
#	174444
#	187996
#	203214
#	249961
#	277051
#	299698
#	315860
#	328008
#
# Disc length: 4575 seconds
#
# Revision: 0
# Processed by: cddbd v1.5.1PL2 Copyright (c) Steve Scherf et al.
# Submitted via: EasyCDDAExtractor 9.0.0.1
#
DISCID=2b11dd15
DTITLE=nina simone - the very best of
DYEAR=1900
DGENRE=
TTITLE0=aint got no, i got life
TTITLE1=my baby just cares for me
TTITLE2=feeling good
TTITLE3=i put a spell on you
TTITLE4=i love you porgy
TTITLE5=dont let me bve misunderstood
TTITLE6=the look of love
TTITLE7=i wish i knew how it would feel to be free
TTITLE8=i want to put a little sugar in my bowl
TTITLE9=do i move you
TTITLE10=do what you gotta do
TTITLE11=to be young, gifted and black
TTITLE12=since i fell for you
TTITLE13=nobodys fault but mine
TTITLE14=i think its going to rain today
TTITLE15=sinnerman
TTITLE16=times they are a changin'
TTITLE17=mr bojangles
TTITLE18=here comes the sun
TTITLE19=to love somebody
TTITLE20=aint got no. i got life (remix)
EXTD=
EXTT0=
EXTT1=
EXTT2=
EXTT3=
EXTT4=
EXTT5=
EXTT6=
EXTT7=
EXTT8=
EXTT9=
EXTT10=
EXTT11=
EXTT12=
EXTT13=
EXTT14=
EXTT15=
EXTT16=
EXTT17=
EXTT18=
EXTT19=
EXTT20=
PLAYORDER=
